<?xml version="1.0" encoding="utf-8"?>
<!-- Generator: Adobe Illustrator 23.0.0, SVG Export Plug-In . SVG Version: 6.00 Build 0)  -->
<svg version="1.1" id="Layer_1" xmlns="http://www.w3.org/2000/svg" xmlns:xlink="http://www.w3.org/1999/xlink" x="0px" y="0px"
	 viewBox="0 0 332 17" style="enable-background:new 0 0 332 17;" xml:space="preserve">
<style type="text/css">
	.st0{fill:#C5C5C5;}
</style>
<g>
	<path class="st0" d="M9.43,7.91c0.92,0.12,1.72,0.3,2.41,0.55s1.25,0.55,1.7,0.89s0.78,0.73,1,1.17s0.33,0.89,0.33,1.38
		c0,0.84-0.21,1.58-0.64,2.2s-1,1.13-1.73,1.54s-1.59,0.7-2.57,0.9S7.9,16.82,6.8,16.82c-0.79,0-1.5-0.03-2.13-0.09
		s-1.21-0.14-1.75-0.25s-1.03-0.24-1.49-0.39s-0.91-0.32-1.35-0.5v-1.7c0.97,0.58,1.98,1,3.02,1.26s2.15,0.39,3.33,0.39
		c1.19,0,2.22-0.09,3.09-0.26c0.87-0.18,1.59-0.42,2.15-0.74s0.99-0.7,1.26-1.14c0.28-0.45,0.42-0.94,0.42-1.48
		c0-1.16-0.7-2.01-2.11-2.54s-3.56-0.8-6.47-0.82V7.29c2.66,0,4.66-0.23,6-0.7s2.02-1.21,2.02-2.23c0-0.95-0.54-1.69-1.61-2.21
		S8.54,1.36,6.45,1.36c-0.61,0-1.18,0.03-1.71,0.09S3.71,1.61,3.23,1.73S2.27,2.01,1.81,2.19S0.88,2.58,0.4,2.82V1.14
		c0.52-0.17,1.04-0.32,1.54-0.45s1-0.24,1.51-0.32s1.03-0.15,1.56-0.19S6.1,0.11,6.68,0.11c0.66,0,1.3,0.03,1.93,0.09
		s1.22,0.16,1.79,0.3s1.08,0.31,1.55,0.53s0.88,0.48,1.22,0.79s0.61,0.67,0.8,1.07s0.29,0.87,0.29,1.38c0,0.41-0.1,0.82-0.3,1.21
		s-0.5,0.75-0.9,1.08s-0.91,0.61-1.51,0.85S10.24,7.81,9.43,7.91z"/>
	<path class="st0" d="M26.81,7.91c0.92,0.12,1.72,0.3,2.41,0.55s1.25,0.55,1.7,0.89s0.78,0.73,1,1.17s0.33,0.89,0.33,1.38
		c0,0.84-0.21,1.58-0.64,2.2s-1,1.13-1.73,1.54s-1.59,0.7-2.57,0.9s-2.02,0.29-3.12,0.29c-0.79,0-1.5-0.03-2.13-0.09
		s-1.21-0.14-1.75-0.25s-1.03-0.24-1.49-0.39s-0.91-0.32-1.35-0.5v-1.7c0.97,0.58,1.98,1,3.02,1.26s2.15,0.39,3.33,0.39
		c1.19,0,2.22-0.09,3.09-0.26c0.87-0.18,1.59-0.42,2.15-0.74s0.99-0.7,1.26-1.14c0.28-0.45,0.42-0.94,0.42-1.48
		c0-1.16-0.7-2.01-2.11-2.54s-3.56-0.8-6.47-0.82V7.29c2.66,0,4.66-0.23,6-0.7s2.02-1.21,2.02-2.23c0-0.95-0.54-1.69-1.61-2.21
		s-2.65-0.79-4.74-0.79c-0.61,0-1.18,0.03-1.71,0.09s-1.03,0.16-1.52,0.28s-0.96,0.28-1.42,0.46s-0.93,0.39-1.41,0.63V1.14
		c0.52-0.17,1.04-0.32,1.54-0.45s1-0.24,1.51-0.32s1.03-0.15,1.56-0.19s1.09-0.06,1.68-0.06c0.66,0,1.3,0.03,1.93,0.09
		s1.22,0.16,1.79,0.3s1.08,0.31,1.55,0.53s0.88,0.48,1.22,0.79s0.61,0.67,0.8,1.07s0.29,0.87,0.29,1.38c0,0.41-0.1,0.82-0.3,1.21
		s-0.5,0.75-0.9,1.08s-0.91,0.61-1.51,0.85S27.62,7.81,26.81,7.91z"/>
	<path class="st0" d="M42.72,9.22l-6.94,7.28h-1.85l7.88-8.26L34.31,0.4h1.85l6.55,6.89l6.57-6.89h1.85l-7.49,7.84l7.86,8.26h-1.84
		L42.72,9.22z"/>
	<path class="st0" d="M73.78,0.11c0.74,0,1.43,0.04,2.07,0.11s1.25,0.18,1.84,0.32s1.16,0.3,1.71,0.49s1.11,0.4,1.68,0.64v1.78
		c-0.45-0.28-0.92-0.55-1.42-0.8c-0.5-0.25-1.05-0.47-1.63-0.66c-0.58-0.19-1.21-0.34-1.88-0.45S74.77,1.38,74,1.38
		c-1.56,0-2.93,0.16-4.09,0.49C68.74,2.2,67.77,2.67,67,3.28s-1.35,1.35-1.74,2.23s-0.58,1.86-0.58,2.95c0,1.02,0.19,1.97,0.57,2.83
		c0.38,0.86,0.95,1.61,1.72,2.23c0.77,0.62,1.73,1.11,2.89,1.46s2.51,0.53,4.07,0.53c0.61,0,1.21-0.02,1.81-0.07
		s1.16-0.11,1.69-0.18s1.02-0.16,1.45-0.25c0.44-0.09,0.81-0.18,1.11-0.28V9.86h-6.55V8.48h8.02v7.08c-0.58,0.2-1.16,0.38-1.75,0.54
		s-1.2,0.29-1.83,0.39s-1.28,0.19-1.96,0.24s-1.38,0.08-2.13,0.08c-1.52,0-2.92-0.17-4.22-0.51s-2.42-0.86-3.37-1.55
		s-1.69-1.56-2.23-2.61s-0.81-2.28-0.81-3.69c0-0.95,0.12-1.81,0.38-2.58s0.6-1.48,1.06-2.1s1.01-1.16,1.65-1.62
		s1.36-0.84,2.14-1.14s1.63-0.53,2.54-0.68S72.8,0.11,73.78,0.11z"/>
	<path class="st0" d="M97.09,1.41c-0.4-0.08-0.92-0.12-1.55-0.12c-0.88,0-1.7,0.11-2.47,0.32s-1.48,0.51-2.14,0.87
		s-1.27,0.79-1.83,1.28s-1.07,1.01-1.52,1.55V16.5H86.1V0.4h1.46v3.28c0.52-0.54,1.09-1.04,1.71-1.49s1.26-0.84,1.94-1.17
		s1.39-0.58,2.14-0.76s1.52-0.28,2.31-0.28c0.27,0,0.52,0.01,0.74,0.02s0.42,0.03,0.6,0.05s0.36,0.04,0.52,0.06s0.33,0.05,0.5,0.08
		v1.44C97.81,1.57,97.49,1.49,97.09,1.41z"/>
	<path class="st0" d="M119.33,8.46c0,1.45-0.26,2.69-0.78,3.74c-0.52,1.05-1.24,1.92-2.16,2.6s-1.99,1.19-3.23,1.52
		c-1.24,0.33-2.58,0.49-4.02,0.49c-1.44,0-2.79-0.16-4.04-0.49c-1.25-0.33-2.33-0.83-3.26-1.52s-1.64-1.55-2.17-2.6
		s-0.78-2.3-0.78-3.74c0-0.96,0.12-1.83,0.36-2.62c0.24-0.79,0.58-1.49,1.02-2.11c0.44-0.62,0.97-1.16,1.59-1.61
		c0.62-0.45,1.31-0.83,2.07-1.13s1.58-0.52,2.45-0.67s1.79-0.22,2.75-0.22c1.44,0,2.78,0.16,4.02,0.49
		c1.24,0.33,2.32,0.83,3.23,1.52s1.63,1.55,2.16,2.6C119.06,5.77,119.33,7.02,119.33,8.46z M117.83,8.46c0-1.14-0.19-2.15-0.56-3.02
		c-0.37-0.88-0.92-1.61-1.65-2.21s-1.63-1.05-2.71-1.36c-1.08-0.31-2.34-0.46-3.77-0.46s-2.69,0.16-3.78,0.47
		c-1.09,0.31-2,0.77-2.74,1.37s-1.29,1.34-1.67,2.21c-0.38,0.88-0.56,1.88-0.56,3.01c0,1.14,0.19,2.15,0.56,3.02
		c0.38,0.88,0.93,1.61,1.67,2.21s1.65,1.05,2.74,1.36c1.09,0.31,2.35,0.46,3.78,0.46s2.69-0.15,3.77-0.46
		c1.08-0.31,1.99-0.76,2.71-1.36s1.28-1.33,1.65-2.21C117.64,10.61,117.83,9.6,117.83,8.46z"/>
	<path class="st0" d="M124.82,0.4v10.63c-0.01,0.9,0.11,1.64,0.34,2.21s0.57,1.03,1.01,1.37c0.44,0.33,0.97,0.56,1.6,0.69
		c0.63,0.13,1.34,0.19,2.12,0.19c0.91,0,1.81-0.11,2.68-0.33s1.7-0.5,2.47-0.84c0.77-0.34,1.48-0.72,2.12-1.13
		c0.64-0.41,1.19-0.81,1.64-1.2V0.4h1.5v16.1h-1.5v-2.84c-0.55,0.35-1.14,0.72-1.79,1.1c-0.65,0.38-1.35,0.73-2.1,1.04
		s-1.56,0.58-2.42,0.78c-0.86,0.2-1.77,0.3-2.73,0.3c-1.08,0-2.03-0.14-2.84-0.41c-0.81-0.27-1.48-0.66-2.01-1.15
		s-0.93-1.08-1.2-1.75c-0.27-0.68-0.4-1.42-0.4-2.23V0.4H124.82z"/>
	<path class="st0" d="M161.02,16.5V5.87c0-0.89-0.12-1.62-0.36-2.2s-0.58-1.03-1.02-1.37s-0.98-0.57-1.61-0.7s-1.34-0.2-2.13-0.2
		c-0.91,0-1.81,0.11-2.69,0.33s-1.71,0.5-2.49,0.84s-1.5,0.72-2.16,1.13s-1.21,0.81-1.66,1.2V16.5h-1.46V0.4h1.46v2.82
		c0.55-0.34,1.15-0.71,1.81-1.08s1.37-0.73,2.13-1.04s1.58-0.58,2.44-0.78s1.78-0.3,2.74-0.3c1.09,0,2.03,0.13,2.84,0.39
		s1.48,0.63,2.02,1.11s0.94,1.06,1.2,1.75s0.4,1.45,0.4,2.29V16.5H161.02z"/>
	<path class="st0" d="M185.13,8.44c0,1.03-0.11,1.95-0.32,2.75s-0.52,1.5-0.91,2.09s-0.87,1.1-1.42,1.51s-1.18,0.75-1.86,1
		s-1.43,0.43-2.23,0.54s-1.64,0.17-2.53,0.17h-8.31V0.4h8.29c1.32,0,2.55,0.13,3.68,0.39s2.12,0.7,2.95,1.32s1.48,1.45,1.96,2.48
		S185.13,6.9,185.13,8.44z M183.63,8.44c0-0.88-0.09-1.65-0.26-2.32c-0.17-0.67-0.42-1.26-0.74-1.75c-0.32-0.5-0.71-0.91-1.17-1.25
		c-0.46-0.34-0.98-0.61-1.56-0.82c-0.58-0.21-1.21-0.35-1.89-0.44c-0.68-0.09-1.4-0.13-2.17-0.13h-6.83v13.43h6.83
		c1.15,0,2.2-0.1,3.15-0.31c0.95-0.21,1.77-0.57,2.46-1.08s1.22-1.2,1.6-2.06C183.44,10.85,183.63,9.76,183.63,8.44z"/>
	<path class="st0" d="M213.26,15.87c-0.55,0.2-1.12,0.36-1.72,0.5s-1.22,0.25-1.88,0.33s-1.37,0.12-2.14,0.12
		c-0.95,0-1.87-0.08-2.75-0.23s-1.7-0.39-2.46-0.7s-1.45-0.7-2.06-1.17s-1.15-1.01-1.59-1.62s-0.78-1.31-1.02-2.09
		s-0.36-1.62-0.36-2.54s0.12-1.77,0.36-2.54s0.58-1.47,1.02-2.09s0.97-1.16,1.59-1.62s1.3-0.85,2.06-1.17s1.57-0.55,2.45-0.7
		s1.79-0.23,2.75-0.23c0.77,0,1.49,0.04,2.14,0.12s1.28,0.19,1.88,0.33s1.17,0.31,1.72,0.5s1.11,0.4,1.67,0.64v1.76
		c-0.45-0.28-0.92-0.55-1.43-0.8c-0.51-0.25-1.06-0.47-1.65-0.66s-1.22-0.34-1.89-0.45c-0.67-0.11-1.39-0.16-2.16-0.16
		c-1.55,0-2.89,0.17-4.02,0.5c-1.13,0.34-2.07,0.81-2.81,1.42s-1.29,1.36-1.64,2.23c-0.36,0.87-0.53,1.85-0.53,2.92
		s0.18,2.05,0.53,2.92c0.36,0.87,0.9,1.61,1.64,2.22s1.68,1.09,2.81,1.42c1.13,0.33,2.47,0.5,4.02,0.5c0.77,0,1.49-0.05,2.17-0.16
		c0.68-0.11,1.33-0.26,1.92-0.45c0.6-0.19,1.15-0.4,1.65-0.65s0.96-0.51,1.38-0.78v1.75C214.37,15.46,213.81,15.67,213.26,15.87z"/>
	<path class="st0" d="M237.99,8.46c0,1.45-0.26,2.69-0.78,3.74c-0.52,1.05-1.24,1.92-2.16,2.6s-1.99,1.19-3.23,1.52
		c-1.24,0.33-2.58,0.49-4.02,0.49c-1.44,0-2.79-0.16-4.04-0.49c-1.25-0.33-2.33-0.83-3.26-1.52s-1.64-1.55-2.17-2.6
		s-0.78-2.3-0.78-3.74c0-0.96,0.12-1.83,0.36-2.62c0.24-0.79,0.58-1.49,1.02-2.11c0.44-0.62,0.97-1.16,1.59-1.61
		c0.62-0.45,1.31-0.83,2.07-1.13s1.58-0.52,2.45-0.67s1.79-0.22,2.75-0.22c1.44,0,2.78,0.16,4.02,0.49
		c1.24,0.33,2.32,0.83,3.23,1.52s1.63,1.55,2.16,2.6C237.73,5.77,237.99,7.02,237.99,8.46z M236.49,8.46c0-1.14-0.19-2.15-0.56-3.02
		c-0.37-0.88-0.92-1.61-1.65-2.21s-1.63-1.05-2.71-1.36c-1.08-0.31-2.34-0.46-3.77-0.46s-2.69,0.16-3.78,0.47
		c-1.09,0.31-2,0.77-2.74,1.37s-1.29,1.34-1.67,2.21c-0.38,0.88-0.56,1.88-0.56,3.01c0,1.14,0.19,2.15,0.56,3.02
		c0.38,0.88,0.93,1.61,1.67,2.21s1.65,1.05,2.74,1.36c1.09,0.31,2.35,0.46,3.78,0.46s2.69-0.15,3.77-0.46
		c1.08-0.31,1.99-0.76,2.71-1.36s1.28-1.33,1.65-2.21C236.3,10.61,236.49,9.6,236.49,8.46z"/>
	<path class="st0" d="M257.65,16.5V5.87c0-0.89-0.12-1.62-0.36-2.2s-0.58-1.03-1.02-1.37s-0.98-0.57-1.61-0.7s-1.34-0.2-2.13-0.2
		c-0.91,0-1.81,0.11-2.69,0.33s-1.71,0.5-2.49,0.84s-1.5,0.72-2.16,1.13s-1.21,0.81-1.66,1.2V16.5h-1.46V0.4h1.46v2.82
		c0.55-0.34,1.15-0.71,1.81-1.08s1.37-0.73,2.13-1.04s1.58-0.58,2.44-0.78s1.78-0.3,2.74-0.3c1.09,0,2.03,0.13,2.84,0.39
		s1.48,0.63,2.02,1.11s0.94,1.06,1.2,1.75s0.4,1.45,0.4,2.29V16.5H257.65z"/>
	<path class="st0" d="M270.37,1.73V16.5h-1.45V1.73h-7.32V0.4h16.1v1.34H270.37z"/>
	<path class="st0" d="M291.73,1.41c-0.4-0.08-0.92-0.12-1.55-0.12c-0.88,0-1.7,0.11-2.47,0.32s-1.48,0.51-2.14,0.87
		s-1.27,0.79-1.83,1.28s-1.07,1.01-1.52,1.55V16.5h-1.46V0.4h1.46v3.28c0.52-0.54,1.09-1.04,1.71-1.49s1.26-0.84,1.94-1.17
		s1.39-0.58,2.14-0.76s1.52-0.28,2.31-0.28c0.27,0,0.52,0.01,0.74,0.02s0.42,0.03,0.6,0.05s0.36,0.04,0.52,0.06s0.33,0.05,0.5,0.08
		v1.44C292.45,1.57,292.13,1.49,291.73,1.41z"/>
	<path class="st0" d="M313.97,8.46c0,1.45-0.26,2.69-0.78,3.74c-0.52,1.05-1.24,1.92-2.16,2.6s-1.99,1.19-3.23,1.52
		c-1.24,0.33-2.58,0.49-4.02,0.49c-1.44,0-2.79-0.16-4.04-0.49c-1.25-0.33-2.33-0.83-3.26-1.52s-1.64-1.55-2.17-2.6
		s-0.78-2.3-0.78-3.74c0-0.96,0.12-1.83,0.36-2.62c0.24-0.79,0.58-1.49,1.02-2.11c0.44-0.62,0.97-1.16,1.59-1.61
		c0.62-0.45,1.31-0.83,2.07-1.13s1.58-0.52,2.45-0.67s1.79-0.22,2.75-0.22c1.44,0,2.78,0.16,4.02,0.49
		c1.24,0.33,2.32,0.83,3.23,1.52s1.63,1.55,2.16,2.6C313.7,5.77,313.97,7.02,313.97,8.46z M312.47,8.46c0-1.14-0.19-2.15-0.56-3.02
		c-0.37-0.88-0.92-1.61-1.65-2.21s-1.63-1.05-2.71-1.36c-1.08-0.31-2.34-0.46-3.77-0.46s-2.69,0.16-3.78,0.47
		c-1.09,0.31-2,0.77-2.74,1.37s-1.29,1.34-1.67,2.21c-0.38,0.88-0.56,1.88-0.56,3.01c0,1.14,0.19,2.15,0.56,3.02
		c0.38,0.88,0.93,1.61,1.67,2.21s1.65,1.05,2.74,1.36c1.09,0.31,2.35,0.46,3.78,0.46s2.69-0.15,3.77-0.46
		c1.08-0.31,1.99-0.76,2.71-1.36s1.28-1.33,1.65-2.21C312.28,10.61,312.47,9.6,312.47,8.46z"/>
	<path class="st0" d="M319.46,10.93c0,0.73,0.06,1.35,0.18,1.88s0.36,0.95,0.74,1.29s0.92,0.58,1.62,0.74s1.65,0.24,2.82,0.24h7.28
		v1.42h-7.57c-1.29,0-2.35-0.1-3.19-0.31s-1.51-0.53-2-0.96s-0.84-0.98-1.04-1.65S318,12.13,318,11.21V0.4h1.46V10.93z"/>
</g>
</svg>
